# xmcd
#
# Track frame offsets: 
#        150
#        10735
#        23245
#        35642
#        47295
#        60082
#        70245
#        79795
#        93362
#        102357
#        111420
#        125585
#        138127
#        148560
#        160027
#        171588
#        182441
#        192308
#        202256
#        213108
#
# Disc length: 2967 seconds
#
# Revision: 2
# Processed by: cddbd v1.5.2PL0 Copyright (c) Steve Scherf et al.
# Submitted via: ExactAudioCopy v1.0b3
#
DISCID=100b9514
DTITLE=Nelson, Willie - Country Willie
DYEAR=2000
DGENRE=Country
TTITLE0=Blame It On The Times
TTITLE1=Shelter Of Your Arms
TTITLE2=I Can't Find The Time
TTITLE3=I'll Stay Around
TTITLE4=Any Old Arms Won't Do
TTITLE5=Pride Wins Again
TTITLE6=Building Heartaches
TTITLE7=Everything But You
TTITLE8=Right And Wrong
TTITLE9=Waiting Time
TTITLE10=Rainy Day Blues
TTITLE11=Country Willie
TTITLE12=Broken Promises
TTITLE13=Touch Me
TTITLE14=The Last Letter
TTITLE15=I Feel Sorry For You
TTITLE16=Ashamed
TTITLE17=Healing Hands Of Time
TTITLE18=Go Away
TTITLE19=Let's Pretend
EXTD=
EXTT0=
EXTT1=
EXTT2=
EXTT3=
EXTT4=
EXTT5=
EXTT6=
EXTT7=
EXTT8=
EXTT9=
EXTT10=
EXTT11=
EXTT12=
EXTT13=
EXTT14=
EXTT15=
EXTT16=
EXTT17=
EXTT18=
EXTT19=
PLAYORDER=
